<?xml version="1.0" encoding="UTF-8"?><svg id="Layer_2" xmlns="http://www.w3.org/2000/svg" xmlns:xlink="http://www.w3.org/1999/xlink" viewBox="0 0 285.33 275.67"><defs><style>.cls-1{fill:none;}.cls-2{clip-path:url(#clippath);}.cls-3{fill:#fffefa;}.cls-4{fill:#ffd400;}.cls-5{clip-path:url(#clippath-1);}.cls-6{clip-path:url(#clippath-4);}.cls-7{clip-path:url(#clippath-3);}.cls-8{clip-path:url(#clippath-2);}.cls-9{clip-path:url(#clippath-5);}</style><clipPath id="clippath"><rect class="cls-1" y="4.52" width="285.33" height="237.33"/></clipPath><clipPath id="clippath-1"><rect class="cls-1" x="3.99" y="-14.08" width="278" height="257" transform="translate(-19 29) rotate(-10.86)"/></clipPath><clipPath id="clippath-2"><rect class="cls-1" x="3.99" y="-14.08" width="278" height="257" transform="translate(-19 29) rotate(-10.86)"/></clipPath><clipPath id="clippath-3"><rect class="cls-1" x="141.33" y="20.52" width="46.18" height="49.48"/></clipPath><clipPath id="clippath-4"><rect class="cls-1" x="134.51" y="9.85" width="22.82" height="25.33"/></clipPath><clipPath id="clippath-5"><rect class="cls-1" x="161.33" width="17.33" height="17.85"/></clipPath></defs><g id="Layer_1-2"><g class="cls-2"><g class="cls-5"><g class="cls-8"><path class="cls-4" d="m38.51,49.91c-2.96-15.44-3.44-30.66-1.39-45.32C8.78,36.47-4.99,80.87,3.71,126.18c14.81,77.19,89.65,127.9,166.89,113.08,61.79-11.86,106.79-62.25,114.56-121.51-20.03,22.64-47.52,39.05-79.42,45.17-77.57,14.89-152.42-35.82-167.23-113.02Z"/></g></g></g><path class="cls-3" d="m47.45,27.24c-.38-2.49-.34-4.47.1-5.94.46-1.47,1.23-2.65,2.31-3.52,1.08-.86,2.45-1.49,4.1-1.88,1.67-.38,3.53-.72,5.58-1.02,1.65-.25,3.32-.45,5-.58,1.68-.14,3.48-.24,5.4-.29-.07-.5-.14-.89-.19-1.17-.06-.28-.1-.51-.13-.69-.17-1.11-.07-2.11.29-3,.38-.9,1.07-1.43,2.08-1.58.64-.08,1.23.08,1.79.48.55.39,1.05.93,1.5,1.63.46.68.85,1.44,1.19,2.27.33.82.6,1.61.81,2.38.97-.16,2.06-.25,3.27-.29,1.21-.03,2.35.06,3.44.27,1.08.22,2.02.59,2.81,1.1.8.53,1.28,1.29,1.42,2.29.08.54-.02,1.05-.29,1.54-.27.5-.64.92-1.1,1.27-.46.36-.99.66-1.6.9-.61.23-1.22.4-1.81.48-.7.09-1.42.15-2.17.15-.75.01-1.69-.05-2.81-.19.15.61.26,1.01.31,1.21.05.19.09.38.13.56.08.59.11,1.22.1,1.88-.02.67-.1,1.29-.27,1.88s-.43,1.07-.77,1.48c-.35.4-.81.65-1.38.73-.61.09-1.2-.08-1.77-.52-.57-.43-1.09-1.01-1.56-1.73-.47-.71-.87-1.49-1.19-2.33-.32-.83-.56-1.64-.73-2.42-1.46.03-2.8.08-4.02.17-1.22.08-2.46.16-3.71.23-.6.03-1.21.05-1.83.08-.61.04-1.24.11-1.88.21-.45.07-.97.17-1.58.29-.6.13-1.17.33-1.71.63-.53.29-.96.69-1.29,1.21-.33.51-.45,1.17-.33,1.96.07.5.19,1,.35,1.5.17.51.29,1.03.38,1.56.14.92-.08,1.61-.67,2.1-.57.5-1.34.82-2.31.96-.75.11-1.43-.02-2.04-.38-.6-.35-1.11-.83-1.54-1.44-.42-.61-.78-1.32-1.08-2.13-.31-.81-.51-1.57-.6-2.29Z"/><path class="cls-3" d="m91.22,39.76c-.47.17-.94.2-1.4.08-.46-.13-.9-.34-1.31-.65-.42-.3-.79-.66-1.1-1.06-.32-.42-.55-.83-.69-1.25-.24-.67-.28-1.3-.13-1.92.17-.61.6-1.04,1.31-1.29.5-.18.98-.21,1.44-.08.47.11.9.31,1.29.58.39.28.73.64,1.02,1.06.29.42.51.84.67,1.27.22.63.28,1.26.17,1.9-.11.64-.54,1.09-1.27,1.35Zm-16.88,6.42c-.46.15-.95.32-1.46.5-.52.18-1.02.33-1.5.46-.58.18-1.35.44-2.31.77-.95.33-1.98.66-3.1.98-1.11.33-2.27.61-3.46.85-1.18.25-2.3.36-3.35.35-1.06,0-1.97-.18-2.75-.52-.78-.35-1.33-.93-1.67-1.75-.25-.61-.19-1.23.19-1.85.39-.63.96-1.23,1.71-1.81s1.63-1.14,2.63-1.65c1.01-.5,2-.95,2.96-1.35.97-.42,1.86-.77,2.69-1.06.83-.29,1.46-.51,1.88-.65.51-.18,1.26-.44,2.25-.79,1-.36,2.07-.71,3.23-1.04,1.15-.33,2.34-.61,3.56-.83,1.23-.22,2.4-.32,3.5-.31,1.09,0,2.04.18,2.83.54.79.36,1.34.97,1.65,1.83.3.91.09,1.74-.65,2.52-.72.78-1.65,1.49-2.77,2.15-1.11.67-2.25,1.22-3.42,1.67-1.17.46-2.04.79-2.63,1Z"/><path class="cls-3" d="m68.23,78.53c-.32-.5-.34-1.05-.06-1.65.29-.58.69-1.14,1.19-1.65.5-.52,1.04-.99,1.63-1.42.59-.43,1.06-.75,1.4-.96.9-.56,1.84-1.06,2.81-1.5.97-.45,1.95-.89,2.94-1.31.98-.42,1.96-.85,2.92-1.29.97-.45,1.91-.95,2.81-1.5.36-.22.74-.49,1.15-.79.42-.29.78-.6,1.08-.94.3-.33.51-.7.6-1.08.09-.39.02-.78-.23-1.17-.17-.28-.57-.44-1.21-.5-.64-.05-1.33-.05-2.06,0-.72.06-1.43.16-2.1.31-.68.14-1.16.29-1.44.46l-2,1.25c-.66.43-1.33.85-2.02,1.27l-2.63,1.63c-.57.32-1.16.61-1.77.9-.6.28-1.21.53-1.83.75-.58.26-1.18.45-1.79.56-.61.13-1.2.16-1.75.1-.56-.04-1.08-.2-1.56-.46-.47-.25-.87-.64-1.19-1.17-.38-.6-.49-1.22-.35-1.85.15-.63.46-1.25.92-1.88.47-.61,1.05-1.21,1.75-1.79.71-.58,1.42-1.13,2.13-1.63.72-.51,1.4-.94,2.02-1.29.63-.36,1.13-.65,1.5-.88l2.1-1.31c1.15-.71,2.27-1.42,3.35-2.15,1.08-.73,2.19-1.45,3.31-2.15.59-.38,1.36-.83,2.29-1.38.94-.55,1.92-1,2.94-1.33,1.03-.34,2-.47,2.92-.38.93.08,1.69.6,2.27,1.54.25.41.34.85.27,1.35-.06.5-.2,1-.44,1.5-.22.5-.52.97-.88,1.42-.36.45-.68.81-.94,1.08.61.07,1.23.19,1.88.35.64.16,1.26.4,1.88.73.63.32,1.21.74,1.77,1.27.57.53,1.1,1.2,1.6,2,.94,1.54,1.31,2.96,1.1,4.27-.2,1.32-.72,2.51-1.58,3.58-.85,1.08-1.88,2.05-3.08,2.92-1.21.88-2.33,1.63-3.35,2.27-.52.3-1.3.72-2.35,1.25-1.06.53-2.26,1.07-3.6,1.63-1.35.55-2.77,1.06-4.25,1.52-1.49.46-2.9.78-4.23.98-1.32.21-2.5.2-3.54-.02-1.03-.21-1.79-.71-2.27-1.5Z"/><path class="cls-3" d="m80.12,113.99c-.63-.57-1.25-1.32-1.88-2.25-.63-.93-1.11-1.91-1.48-2.92-.36-1.02-.54-2-.54-2.96-.01-.96.29-1.78.92-2.46.24-.27.54-.47.92-.63.36-.14.74-.21,1.15-.21.39.01.77.08,1.15.21.36.13.69.31.98.56.32.29.58.63.79,1,.22.38.43.77.63,1.19.22.43.44.84.67,1.25.23.42.53.79.9,1.13.65.59,1.42.89,2.29.88.89-.02,1.83-.22,2.83-.63,1.01-.39,2.02-.93,3.02-1.63,1-.68,1.95-1.41,2.85-2.17.92-.75,1.74-1.48,2.48-2.19.75-.7,1.35-1.27,1.81-1.71-2.18.54-4.06.77-5.65.69s-3.02-.72-4.31-1.92c-1-.91-1.68-1.91-2.04-3-.36-1.1-.49-2.22-.4-3.38.11-1.15.4-2.32.85-3.52.46-1.19,1.03-2.33,1.73-3.42.69-1.09,1.42-2.11,2.19-3.06.78-.94,1.53-1.76,2.27-2.46.55-.57,1.31-1.26,2.27-2.06.97-.82,1.99-1.55,3.06-2.21,1.07-.65,2.11-1.07,3.15-1.25,1.04-.18,1.92.1,2.63.85.46.49.66,1.08.6,1.77-.06.68-.27,1.41-.63,2.19-.35.77-.81,1.56-1.38,2.38-.57.81-1.16,1.57-1.77,2.29-.61.72-1.2,1.38-1.75,1.96-.54.57-.95,1.02-1.23,1.33-.42.45-.82.9-1.21,1.35-.38.46-.65.94-.81,1.44-.17.49-.18.99-.04,1.5.14.52.5,1.05,1.08,1.6.69.63,1.4.95,2.1.98.71.03,1.4-.13,2.06-.46s1.29-.76,1.88-1.29c.59-.54,1.13-1.07,1.6-1.6.34-.36.76-.8,1.23-1.31.48-.53.99-1.07,1.52-1.63.54-.57,1.11-1.09,1.71-1.56.59-.48,1.2-.86,1.81-1.15.63-.28,1.23-.41,1.81-.4.59.02,1.15.26,1.67.73.65.61.98,1.39.98,2.31s-.21,1.96-.63,3.08c-.42,1.11-.99,2.25-1.71,3.42-.71,1.18-1.46,2.3-2.25,3.38-.79,1.08-1.55,2.05-2.27,2.9-.71.86-1.28,1.53-1.71,2-1,1.09-2.18,2.3-3.54,3.63-1.35,1.32-2.81,2.61-4.38,3.9-1.57,1.28-3.23,2.42-4.98,3.44-1.75,1.01-3.5,1.74-5.25,2.19-1.74.46-3.44.55-5.1.29-1.66-.27-3.21-1.06-4.67-2.4Z"/><path class="cls-3" d="m142.27,134.63c-2.39-.81-4.14-1.74-5.25-2.81-1.11-1.07-1.81-2.29-2.08-3.65-.28-1.36-.22-2.86.19-4.5.42-1.65.96-3.46,1.63-5.44.54-1.58,1.13-3.15,1.75-4.71.64-1.55,1.38-3.2,2.21-4.94-.49-.17-.87-.28-1.15-.35-.27-.08-.49-.15-.67-.21-1.06-.36-1.91-.9-2.54-1.63-.63-.73-.78-1.59-.46-2.56.21-.61.61-1.07,1.23-1.38.61-.32,1.32-.53,2.15-.63.82-.11,1.67-.13,2.56-.04.89.08,1.71.21,2.48.38.3-.93.71-1.94,1.23-3.04.53-1.09,1.13-2.07,1.81-2.94.69-.88,1.45-1.55,2.27-2.02.82-.47,1.71-.55,2.67-.23.53.18.94.51,1.25.98.32.46.53.98.63,1.56.11.57.13,1.18.06,1.83-.07.64-.2,1.24-.4,1.81-.22.67-.5,1.34-.83,2.02-.33.67-.82,1.47-1.46,2.42.61.14,1.01.23,1.21.27.21.04.4.1.56.17.57.18,1.15.43,1.73.75.58.31,1.09.67,1.54,1.08.44.41.76.85.96,1.35.21.5.22,1.02.04,1.56-.21.6-.64,1.05-1.29,1.35-.64.31-1.39.5-2.23.58-.85.08-1.72.08-2.63,0-.89-.09-1.72-.24-2.48-.44-.67,1.31-1.24,2.53-1.71,3.67-.47,1.13-.96,2.25-1.46,3.38-.25.56-.5,1.12-.75,1.69-.25.57-.48,1.16-.69,1.77-.14.43-.29.95-.46,1.54-.17.58-.24,1.18-.23,1.79.01.61.18,1.18.5,1.71.32.53.86.93,1.63,1.19.47.16.97.28,1.5.38.53.08,1.04.21,1.54.38.88.29,1.4.8,1.56,1.54.18.73.11,1.57-.19,2.5-.24.71-.66,1.25-1.25,1.63-.6.38-1.27.61-2,.73-.74.11-1.53.11-2.38,0-.85-.1-1.62-.27-2.31-.5Z"/><path class="cls-3" d="m183.65,131.71c-.04.64-.14,1.47-.27,2.5-.13,1.03-.35,2.02-.67,2.96-.32.94-.77,1.74-1.35,2.4-.58.67-1.35.96-2.31.9-1.31-.11-2.28-.62-2.92-1.52-.63-.91-.88-1.98-.75-3.25-1.21.91-2.55,1.58-4.02,2.02-1.47.46-2.95.63-4.42.5-1.03-.08-1.99-.41-2.88-.96-.88-.57-1.64-1.26-2.27-2.08-.64-.83-1.14-1.75-1.48-2.75-.35-1.01-.48-2-.4-2.96.13-1.68.76-3.11,1.9-4.29,1.14-1.19,2.5-2.18,4.08-2.96,1.59-.78,3.27-1.36,5.02-1.75,1.75-.4,3.3-.64,4.67-.71.01-.18.03-.34.06-.48.03-.14.05-.3.06-.48.08-1.09-.15-2-.69-2.71s-1.36-1.11-2.46-1.21c-.89-.07-1.67.02-2.33.27-.66.25-1.28.54-1.88.88-.58.32-1.18.6-1.77.85-.58.25-1.23.35-1.94.29-.77-.05-1.41-.34-1.92-.88-.5-.54-.72-1.2-.65-1.98.08-1.15.51-2.18,1.27-3.08.76-.92,1.69-1.66,2.77-2.23,1.09-.57,2.26-.98,3.5-1.25,1.25-.26,2.39-.35,3.42-.27.94.07,1.88.26,2.81.56.94.31,1.82.73,2.63,1.27.8.54,1.52,1.19,2.15,1.94.64.74,1.14,1.58,1.5,2.52.53,1.35.93,2.77,1.21,4.27.28,1.5.45,3.03.52,4.58.08,1.54.09,3.08.04,4.63-.04,1.53-.13,3.02-.25,4.46Zm-8.29-2.35l.1-3.6c-.07-.01-.14-.03-.21-.04-.06-.03-.12-.04-.19-.04-.46-.04-1.04.03-1.75.21-.71.18-1.41.45-2.08.81-.67.35-1.24.75-1.71,1.21-.47.45-.73.93-.77,1.46-.04.5.1.85.44,1.06.33.2.73.31,1.19.35.78.06,1.63-.08,2.54-.42.93-.33,1.74-.67,2.44-1Z"/><path class="cls-3" d="m201.4,104.92c.28,1.91.47,3.82.58,5.75.11,1.92.3,3.84.58,5.77.34,2.49.77,4.96,1.27,7.42.51,2.46.94,4.96,1.29,7.5.09.63.17,1.33.21,2.13s-.03,1.54-.21,2.25c-.17.71-.48,1.33-.94,1.85-.45.52-1.11.83-2,.96-.83.13-1.62-.18-2.35-.92-.72-.73-1.39-1.71-1.98-2.94-.58-1.22-1.12-2.59-1.6-4.13-.47-1.54-.88-3.05-1.21-4.52-.33-1.47-.61-2.82-.83-4.06-.23-1.23-.4-2.15-.48-2.75-.08-.67-.19-1.63-.31-2.9-.14-1.28-.22-2.66-.25-4.15-.03-1.5,0-3.03.08-4.58.07-1.55.27-2.99.58-4.31.32-1.32.76-2.42,1.33-3.29.58-.89,1.34-1.4,2.27-1.54.76-.11,1.38.06,1.85.52.48.46.86,1.04,1.15,1.73.28.7.48,1.43.63,2.21.15.78.26,1.45.33,2Z"/><path class="cls-3" d="m236.96,117.46c.42,1.13.46,2.36.15,3.71-.31,1.33-.85,2.63-1.63,3.88-.77,1.25-1.66,2.36-2.69,3.33-1.03.97-2.06,1.65-3.08,2.02-1.77.66-3.5.79-5.21.42-1.7-.38-3.26-1.07-4.69-2.08-1.43-1.03-2.69-2.27-3.77-3.73-1.09-1.47-1.93-2.98-2.5-4.54-.61-1.65-1.03-3.51-1.27-5.56-.23-2.07-.17-4.07.19-6.02.36-1.94,1.07-3.71,2.13-5.31,1.04-1.59,2.56-2.76,4.54-3.5,1.13-.42,2.27-.61,3.44-.6,1.18,0,2.28.21,3.29.63,1.03.42,1.95,1.02,2.77,1.81.82.78,1.44,1.77,1.88,2.96.58,1.56.79,3.14.63,4.75-.16,1.61-.6,3.12-1.33,4.52-.72,1.39-1.68,2.66-2.88,3.81-1.2,1.14-2.53,2.02-4,2.63.47.91,1.11,1.45,1.92,1.65.82.2,1.67.14,2.56-.19.67-.25,1.25-.65,1.75-1.21.51-.57.99-1.17,1.44-1.81.44-.64.9-1.23,1.35-1.77.46-.55.98-.94,1.58-1.17.67-.25,1.34-.26,2.02-.02.68.24,1.15.71,1.42,1.42Zm-12.54-9.21c-.16-.43-.44-.83-.85-1.21-.41-.39-.85-.48-1.35-.29-.72.27-1.27.68-1.63,1.25-.36.56-.6,1.19-.71,1.9-.11.7-.14,1.41-.08,2.15.05.74.17,1.39.35,1.96.43-.28.94-.61,1.52-1.02.58-.4,1.11-.84,1.58-1.33.48-.5.85-1.04,1.1-1.63.26-.58.28-1.17.06-1.77Z"/><path class="cls-3" d="m247.77,87.5c.56.86.69,1.69.4,2.48-.29.78-.67,1.58-1.13,2.42-.47.83-.83,1.7-1.08,2.58-.25.88-.04,1.82.63,2.83.35.53.78.91,1.29,1.13.5.21,1.04.35,1.6.42.57.07,1.18.12,1.83.15.67.03,1.32.14,1.96.31.64.17,1.28.47,1.92.9.64.42,1.23,1.06,1.79,1.92.82,1.24,1.3,2.67,1.46,4.29.15,1.61.04,3.21-.33,4.79-.36,1.58-.98,3.06-1.85,4.44s-1.93,2.47-3.15,3.27c-.5.32-1.03.61-1.58.88-.54.27-1.08.43-1.6.48-.53.06-1.05-.01-1.56-.21-.53-.21-.98-.6-1.38-1.19-.54-.83-.8-1.58-.77-2.25.03-.68.21-1.32.54-1.92.32-.59.72-1.15,1.21-1.67.47-.53.89-1.07,1.25-1.63.36-.55.58-1.11.67-1.69.09-.57-.07-1.17-.5-1.81-.4-.63-1.07-1.1-2-1.44-.93-.34-1.94-.7-3.02-1.06-1.08-.36-2.15-.81-3.21-1.35-1.05-.54-1.92-1.32-2.6-2.35-.83-1.26-1.34-2.6-1.52-4.02-.19-1.42-.11-2.81.23-4.19.33-1.39.91-2.68,1.73-3.88.81-1.19,1.83-2.2,3.08-3.02.47-.3.97-.56,1.5-.77.52-.21,1.02-.32,1.52-.33.5-.01.98.09,1.44.31.46.22.88.62,1.25,1.19Z"/><g class="cls-7"><path class="cls-4" d="m172.96,38.88c-7.38-7.59-7.81-17.81-7.82-17.91h-1c0,.1-.43,10.31-7.82,17.91-4.27,4.39-8.33,6.1-14.48,6.1v.99c5.78,0,10.84,2.32,15.48,7.09,5.82,5.98,6.71,12.93,6.82,15.66-.03.8,0,1.26,0,1.28h1s.03-.48,0-1.28c.11-2.73,1-9.67,6.82-15.66,4.64-4.78,9.7-7.09,15.48-7.09v-.99c-6.16,0-10.22-1.71-14.48-6.1"/></g><g class="cls-6"><path class="cls-4" d="m149.67,19.63c-3.58-3.69-3.8-8.65-3.8-8.7h-.48s-.21,5.01-3.8,8.7c-2.07,2.13-4.05,2.96-7.04,2.96v.48c2.81,0,5.27,1.13,7.52,3.45,2.82,2.91,3.26,6.28,3.31,7.6-.02.39,0,.61,0,.62h.48s.02-.23,0-.62c.06-1.33.48-4.7,3.31-7.6,2.26-2.32,4.72-3.45,7.53-3.45v-.48c-2.99,0-4.96-.83-7.04-2.96"/></g><g class="cls-9"><path class="cls-4" d="m172.57,6.06c-2.5-2.57-2.65-6.03-2.65-6.06h-.34s-.14,3.49-2.64,6.06c-1.44,1.48-2.82,2.06-4.91,2.06v.34c1.96,0,3.67.78,5.24,2.4,1.96,2.02,2.27,4.38,2.3,5.3,0,.27,0,.43,0,.43h.34s.02-.16,0-.43c.04-.92.34-3.28,2.31-5.3,1.57-1.62,3.29-2.4,5.24-2.4v-.34c-2.08,0-3.46-.58-4.9-2.06"/></g><path class="cls-3" d="m61.67,264.82c-1.92,0-3.47,1.13-3.47,2.93s1.28,2.46,3.13,2.89c1.83.42,2.56.99,2.56,2.27,0,1.09-.97,1.73-2.16,1.73-1.36,0-2.31-.77-2.61-2.15h-1.39c.22,2.01,1.68,3.18,3.97,3.18,2.01,0,3.58-1.18,3.58-3.01s-1.15-2.7-3.44-3.23c-1.59-.36-2.23-.84-2.23-1.98s.88-1.6,1.98-1.6c1.31,0,2.08.76,2.2,2.07h1.39c-.2-1.78-1.33-3.09-3.49-3.09Z"/><path class="cls-3" d="m78.37,265.03h-1.3v4.78h-5.74v-4.78h-1.3v10.43h1.3v-4.56h5.74v4.56h1.3v-10.43Z"/><path class="cls-3" d="m87.93,264.82c-3.17,0-4.93,2.23-4.93,5.42s1.76,5.43,4.93,5.43,4.93-2.26,4.93-5.43-1.76-5.42-4.93-5.42Zm0,9.82c-2.19,0-3.47-1.69-3.47-4.4s1.28-4.4,3.47-4.4,3.47,1.68,3.47,4.4-1.28,4.4-3.47,4.4Z"/><path class="cls-3" d="m104.55,272.72c-.09-1.04-.5-1.99-1.34-2.39.97-.31,1.86-1.09,1.86-2.46,0-1.76-1.09-2.58-2.6-2.78-.47-.06-.83-.06-1.36-.06h-3.42v10.43h1.3v-4.49h1.96c.24,0,.49,0,.74.02,1.03.08,1.44.79,1.56,1.86.14,1.29.27,1.95.56,2.61h1.44c-.43-.56-.58-1.38-.7-2.73Zm-5.56-2.81v-3.82h2.11c.47,0,.76.02,1.04.06.97.15,1.53.68,1.53,1.84s-.71,1.8-1.68,1.89c-.29.03-.55.03-1.01.03h-1.99Z"/><path class="cls-3" d="m117.53,266.08v-1.06h-8.73v1.06h3.71v9.37h1.3v-9.37h3.71Z"/><path class="cls-3" d="m131.04,264.82c-1.92,0-3.47,1.13-3.47,2.93s1.28,2.46,3.13,2.89c1.83.42,2.56.99,2.56,2.27,0,1.09-.97,1.73-2.16,1.73-1.36,0-2.31-.77-2.61-2.15h-1.39c.22,2.01,1.68,3.18,3.97,3.18,2.01,0,3.58-1.18,3.58-3.01s-1.15-2.7-3.44-3.23c-1.59-.36-2.23-.84-2.23-1.98s.88-1.6,1.98-1.6c1.31,0,2.08.76,2.2,2.07h1.39c-.2-1.78-1.33-3.09-3.49-3.09Z"/><path class="cls-3" d="m147.13,266.08v-1.06h-8.73v1.06h3.71v9.37h1.3v-9.37h3.71Z"/><path class="cls-3" d="m155.52,264.82c-3.17,0-4.93,2.23-4.93,5.42s1.76,5.43,4.93,5.43,4.93-2.26,4.93-5.43-1.76-5.42-4.93-5.42Zm0,9.82c-2.19,0-3.47-1.69-3.47-4.4s1.28-4.4,3.47-4.4,3.47,1.68,3.47,4.4-1.28,4.4-3.47,4.4Z"/><path class="cls-3" d="m172.14,272.72c-.09-1.04-.5-1.99-1.34-2.39.97-.31,1.86-1.09,1.86-2.46,0-1.76-1.09-2.58-2.6-2.78-.47-.06-.83-.06-1.36-.06h-3.42v10.43h1.3v-4.49h1.96c.24,0,.49,0,.74.02,1.03.08,1.44.79,1.56,1.86.14,1.29.27,1.95.56,2.61h1.44c-.43-.56-.58-1.38-.7-2.73Zm-5.56-2.81v-3.82h2.11c.47,0,.76.02,1.04.06.97.15,1.53.68,1.53,1.84s-.71,1.8-1.68,1.89c-.29.03-.55.03-1.01.03h-1.99Z"/><path class="cls-3" d="m178.69,275.45v-10.43h-1.3v10.43h1.3Z"/><path class="cls-3" d="m191.07,274.4h-5.64v-3.63h5.03v-1.06h-5.03v-3.63h5.48v-1.06h-6.79v10.43h6.94v-1.06Z"/><path class="cls-3" d="m198.98,264.82c-1.92,0-3.47,1.13-3.47,2.93s1.28,2.46,3.13,2.89c1.83.42,2.56.99,2.56,2.27,0,1.09-.97,1.73-2.16,1.73-1.36,0-2.31-.77-2.61-2.15h-1.39c.22,2.01,1.68,3.18,3.97,3.18,2.01,0,3.58-1.18,3.58-3.01s-1.15-2.7-3.44-3.23c-1.59-.36-2.23-.84-2.23-1.98s.88-1.6,1.98-1.6c1.31,0,2.08.76,2.2,2.07h1.39c-.2-1.78-1.33-3.09-3.49-3.09Z"/></g></svg>